<svg fill="none" height="76" viewBox="0 0 76 76" width="76" xmlns="http://www.w3.org/2000/svg"><circle cx="38" cy="38" fill="#e4e4e4" r="38"/><g fill="#000"><path d="m55.4729 20.3256c-1.5509-1.4997-3.5931-2.3255-5.7504-2.3255s-4.1995.8259-5.7505 2.3256l-.104.1007c-2.5245 2.4412-3.2321 6.2238-1.7604 9.4125l2.606 5.6469v19.0197c0 1.9241 1.5653 3.4894 3.4895 3.4894h2.7074c1.924 0 3.4893-1.5653 3.4893-3.4894v-19.0114l2.7428-5.5657c1.5945-3.2359.9236-7.095-1.6697-9.6028zm-2.6354 34.1798c0 1.0626-.8645 1.9272-1.9271 1.9272h-2.7074c-1.0627 0-1.9272-.8646-1.9272-1.9272v-11.8992h3.4387v5.0348c0 .4314.3496.7812.7811.7812.4314 0 .7812-.3498.7812-.7812v-5.0348h1.5606v11.8992zm-6.5617-13.4615v-4.9674h1.185c.0012 0 .0023.0002.0033.0002.0013 0 .0025-.0002.0037-.0002h4.4052c.0012 0 .0025.0002.0036.0002.0012 0 .0023-.0002.0034-.0002h.9574v4.9674zm9.4653-11.806-2.6001 5.2764h-.3431l.6295-3.7774c.071-.4255-.2165-.828-.6421-.899-.4255-.0707-.828.2166-.899.6422l-.6723 4.0342h-.8762v-3.9058c0-.4313-.3497-.7812-.7812-.7812-.4314 0-.7811.3498-.7811.7812v3.9058h-.6487l-.6724-4.0343c-.0709-.4253-.4735-.7128-.899-.6421-.4256.071-.7131.4735-.6421.8991l.6296 3.7773h-.5572l-2.4598-5.33c-1.1936-2.5864-.6197-5.6546 1.4282-7.6349l.104-.1007c2.6156-2.529 6.7132-2.529 9.3286 0 2.1036 2.0342 2.6479 5.1644 1.3544 7.7892z"/><path d="m28.4674 43.0047v-3.4449c0-.6392-.3862-1.1893-.9373-1.4309v-4.8268c0-.8654-.4739-1.6568-1.2367-2.0656l-2.4997-1.3394c-.7331-.3927-1.5968-.3724-2.3105.055-.7137.4271-1.1397 1.1787-1.1397 2.0105v6.1662c-.5511.2416-.9373.7917-.9373 1.4309v3.445c-.7885.0786-1.4062.7456-1.4062 1.5544v11.0923c0 1.2922 1.0512 2.3435 2.3434 2.3435h7.1866c1.2922 0 2.3434-1.0513 2.3434-2.3435v-11.0923c.0001-.8087-.6176-1.4757-1.406-1.5544zm-6.5616-11.0421c0-.3996.2657-.6018.3798-.6702.1142-.0683.418-.2069.7702-.0183l2.4997 1.3394c.2543.1363.4121.4001.4121.6885v4.6954h-4.0618zm-.9374 7.5972h.1562 5.6243.1562v3.437h-5.9367zm7.3428 16.0917c0 .4307-.3504.7812-.7812.7812h-1.4061v-5.9367c0-.4314-.3497-.7812-.7812-.7812-.4314 0-.7811.3498-.7811.7812v5.9367h-4.2182c-.4307 0-.7811-.3504-.7811-.7812v-11.0923h8.7489z"/><path d="m25.895 46.9752c-.1454-.1453-.3461-.2289-.5523-.2289-.2055 0-.407.0836-.5523.2289-.1453.1454-.2289.3468-.2289.5523s.0836.407.2289.5522c.1453.1453.3468.229.5523.229.2062 0 .4069-.0836.5523-.229.1453-.1452.2289-.3467.2289-.5522s-.0836-.407-.2289-.5523z"/><path d="m40.9658 37.2164h-3.5933v-7.6553h1.3289c.4314 0 .7812-.3498.7812-.7812s-.3497-.7812-.7812-.7812h-1.3289v-.9373h1.3289c.4314 0 .7812-.3498.7812-.7812s-.3497-.7812-.7812-.7812h-1.3289v-.9373h1.3289c.4314 0 .7812-.3498.7812-.7812s-.3497-.7811-.7812-.7811h-1.3289v-.9374h1.3289c.4314 0 .7812-.3497.7812-.7811 0-.4315-.3497-.7812-.7812-.7812h-1.3289v-.9374h1.3289c.4314 0 .7812-.3497.7812-.7811s-.3497-.7812-.7812-.7812h-4.22c-.4314 0-.7812.3498-.7812.7812s.3497.7811.7812.7811h1.3288v.9374h-1.3289c-.4314 0-.7811.3497-.7811.7812 0 .4314.3496.7811.7811.7811h1.3289v.9374h-1.3289c-.4314 0-.7811.3497-.7811.7811s.3496.7812.7811.7812h1.3289v.9373h-1.3289c-.4314 0-.7811.3498-.7811.7812s.3496.7812.7811.7812h1.3289v.9373h-1.3289c-.4314 0-.7811.3498-.7811.7812s.3496.7812.7811.7812h1.3289v7.6553h-3.5932c-.4314 0-.7812.3497-.7812.7811v8.7257c0 3.8423 1.0526 7.6098 3.0442 10.8955.1416.2335.3948.3761.668.3761h2.8867c.2732 0 .5265-.1426.668-.3761 1.9916-3.2857 3.0442-7.0533 3.0442-10.8955v-8.7257c0-.4315-.3497-.7811-.7811-.7811zm-.7812 9.5067c0 3.4107-.8963 6.7583-2.5957 9.7095h-1.9953c-1.6993-2.9513-2.5956-6.2988-2.5956-9.7095v-4.5075h4.7072c.4314 0 .7812-.3497.7812-.7811s-.3497-.7812-.7812-.7812h-4.7072v-1.8748h7.1865v7.9446z"/><path d="m51.048 49.8225c-.1453-.1453-.3468-.2289-.5522-.2289-.2055 0-.407.0835-.5523.2289-.1453.1453-.2289.3468-.2289.5523s.0836.407.2289.5522c.1453.1461.3468.229.5523.229.2054 0 .4069-.0829.5522-.229.1453-.1452.2289-.346.2289-.5522 0-.2055-.0836-.407-.2289-.5523z"/></g></svg>