<svg fill="none" height="76" viewBox="0 0 76 76" width="76" xmlns="http://www.w3.org/2000/svg"><circle cx="38" cy="38" fill="#e4e4e4" r="38"/><g fill="#000"><path d="m36.6098 27.8461c.1635.3924.6263.5852 1.0195.4219.3934-.1634.5857-.6264.4227-1.0203-.1626-.3927-.6278-.5853-1.0203-.4219-.3945.1641-.5835.626-.4219 1.0203z"/><path d="m53.4815 46.3539h-.0257v-.528c0-3.7523-3.0554-6.8051-6.811-6.8051s-6.811 3.0528-6.811 6.8051v5.3689c0 2.8908-2.3544 5.2427-5.2485 5.2427-2.1179 0-4.0068-1.2738-4.8234-3.1739.8279-.431 1.3949-1.2965 1.3949-2.2923v-1.2086c1.3795-.8672 2.2987-2.4011 2.2987-4.1463v-3.306c2.8584-.3823 4.2886-2.7627 4.353-2.8725.1924-.3283.1203-.7474-.1707-.9925l-3.4333-2.8923 10.3286-3.5119c1.8789-.639 3.9907-.1351 5.4247 1.2217.7982.7559 2.0145 1.6248 3.6263 1.9835.655.1459 2.2953.5253 2.2953-.6124v-14.0748c0-.8667-.9566-.8046-1.5567-.7407-1.5693.1655-3.0179.8595-4.319 2.0693-1.4445 1.3452-3.561 1.8317-5.4346 1.178l-12.0317-4.2017c-1.2233-.5586-2.5749-.8641-3.9815-.8641-5.1972 0-9.5559 4.3426-9.5559 9.5473 0 1.1026.1887 2.1618.5344 3.1479.01.036.0222.0711.037.1049.7556 2.0767 2.213 3.8193 4.0843 4.9407v9.8756c0 1.7591.9338 3.304 2.3316 4.1673v1.1876c0 1.2928.9552 2.3667 2.1974 2.5542.9698 2.6616 3.523 4.4745 6.4007 4.4745 3.7556 0 6.811-3.0528 6.811-6.8052v-5.3689c0-2.8907 2.3545-5.2426 5.2485-5.2426 2.8941 0 5.2485 2.3519 5.2485 5.2426v.528h-.0257c-1.6423 0-2.9785 1.3352-2.9785 2.9764v3.2024c0 .4315.3498.7813.7813.7813h.7725v1.3306c0 .4315.3497.7813.7812.7813s.7813-.3498.7813-.7813v-1.3306h1.2693v1.3306c0 .4315.3498.7813.7813.7813s.7812-.3498.7812-.7813v-1.3306h.8415c.4315 0 .7813-.3498.7813-.7813v-3.2024c-.0001-1.6412-1.3363-2.9764-2.9786-2.9764zm-20.026-5.6243v-3.7644l2.6156 2.2034c-.4631.5363-1.3356 1.322-2.6156 1.561zm16.9958-9.0949v-8.0902c.5559-.4109 1.0284-.9149 1.6117-1.2922.6812-.4406 1.449-.7452 2.2539-.8589v12.3998c-.824-.1219-1.612-.4398-2.3085-.8932-.5664-.3687-1.0223-.858-1.5571-1.2653zm-28.9666-.3676h3.0294c.4314 0 .7812-.3498.7812-.7812 0-.4315-.3498-.7813-.7812-.7813h-3.655c-.125-.4444-.2122-.9042-.2583-1.376h3.8361c.4315 0 .7812-.3498.7812-.7813 0-.4314-.3497-.7812-.7812-.7812h-3.8361c.0458-.4688.1322-.9257.256-1.3673h3.5802c.4314 0 .7812-.3498.7812-.7813s-.3498-.7812-.7812-.7812h-2.9568c1.3397-2.5389 4.0085-4.2738 7.0757-4.2738 3.2036 0 6.1615 1.9747 7.3879 4.933.1446.3488.5128.5373.8696.468.0511-.0098.1018-.025.1516-.0457.3986-.1652.5877-.6223.4226-1.0208-.3099-.7476-.716-1.458-1.203-2.1043l7.8697 2.7482c1.5954.5568 3.307.4947 4.8345-.1207v6.3125c-1.5293-.6378-3.2504-.7179-4.8587-.171l-7.7748 2.6436c.4497-.6123.8281-1.2796 1.1212-1.9806.1664-.3981-.0213-.8557-.4195-1.0221-.392-.1639-.858.0257-1.0226.4193-1.1915 2.849-4.0187 4.7986-7.1036 4.9052-3.0339.1026-5.9263-1.5776-7.3461-4.26zm3.7335 5.2267c2.1398.795 4.5342.7967 6.6748.0023v5.0862 4.034c0 1.3201-.7722 2.4634-1.8892 3.003-.8064.3899-1.7576.433-2.5982.1265-1.2754-.4691-2.1874-1.6949-2.1874-3.1295zm2.3316 14.4775v-.5617c.6702.1396 1.3751.1376 2.0445-.0069v.5686c0 .563-.4584 1.0209-1.0219 1.0209-.5639-.0001-1.0226-.4581-1.0226-1.0209zm27.3477.7802h-4.4459v-2.4212c0-.7796.6352-1.4139 1.416-1.4139h1.6139c.7808 0 1.416.6343 1.416 1.4139z"/></g></svg>