<svg fill="none" height="76" viewBox="0 0 76 76" width="76" xmlns="http://www.w3.org/2000/svg"><circle cx="38" cy="38" fill="#e4e4e4" r="38"/><g fill="#000"><path d="m26.8612 52.1845h-4.7496c-.4315 0-.7812.3498-.7812.7813 0 .4314.3497.7812.7812.7812h4.7495c.4315 0 .7812-.3498.7812-.7812 0-.4315-.3497-.7813-.7811-.7813z"/><path d="m31.1001 52.6672c-.1278-.3121-.4554-.5096-.7912-.4793-.323.0293-.6002.2629-.6846.5757-.0837.3107.0391.6498.2999.8373.264.1898.6318.1923.899.0074.2986-.2067.4167-.6056.2769-.9411z"/><path d="m30.3929 48.271h-9.641c-.4315 0-.7813.3498-.7813.7812 0 .4315.3498.7813.7813.7813h9.641c.4315 0 .7813-.3498.7813-.7813 0-.4314-.3498-.7812-.7813-.7812z"/><path d="m27.3893 45.1387c0-.4315-.3498-.7813-.7813-.7813h-6.8268c-.4314 0-.7812.3498-.7812.7813s.3498.7812.7812.7812h6.8268c.4315 0 .7813-.3497.7813-.7812z"/><path d="m58.0659 48.1743c-.1321-4.4291-3.7762-7.9914-8.2367-7.9914h-3.964l-2.255-13.5418c-.1182-.8143-.551-1.5268-1.2197-2.0072-.6713-.4822-1.4885-.6645-2.301-.5134-1.6564.308-2.1122.374-2.2365.3858-.2301.0221-.4387.1449-.5696.3355-.1308.1905-.1706.4293-.1085.652l.1942.6964c-1.4191-.1699-2.7185-.9424-3.5435-2.1513l-.4773-.6984c-.1256-.1838-.3236-.3053-.5443-.3339-.2206-.0289-.4431.0381-.6116.1836l-3.7358 3.2286c-.4186.3143-.8231.7239-1.2026 1.2178-.0002.0003-.0004.0006-.0006.0008-1.0598 1.3762-1.9767 3.4382-2.5039 5.6058-.5783.0538-1.1374.3219-1.5453.7945l-.9046 1.0482c-.4067.4713-.6051 1.0727-.5585 1.6935s.3324 1.1858.8049 1.5912l15.3883 13.2025c.2609.2194.5328.4234.8143.6114h-4.8238c-.4315 0-.7813.3498-.7813.7813s.3498.7812.7813.7812h22.7495c1.2824 0 2.3258-1.0433 2.3258-2.3257v-1.3846c0-.761-.3674-1.4379-.9342-1.8624zm-15.1497-16.1888h-2.3099l-.575-2.0628h2.5414zm.2601 1.5625.3606 2.1653h-1.8917l-.6035-2.1653zm.6208 3.7278.5528 3.32c-.2407.071-.4994.0678-.7519-.0138-.4204-.1359-.7274-.4586-.8442-.8914l-.6731-2.4148zm-3.4219-11.6192c.3898-.0725.7817.015 1.1036.2463.3221.2313.5302.575.5859.9677.0009.0062.0018.0124.0029.0185l.2449 1.4711h-2.7166l-.6799-2.4395c.3397-.0589.8085-.143 1.4592-.2641zm-10.9182 1.9626 3.095-2.6747c1.2047 1.7484 3.1688 2.7943 5.262 2.8421l.1598.5735h-.0463c-.4315 0-.7812.3497-.7812.7812s.3497.7813.7812.7813h.4818l.5749 2.0628h-.5077c-.4315 0-.7813.3498-.7813.7812 0 .4315.3498.7813.7813.7813h.9433l.6035 2.1653h-.9218c-.4315 0-.7813.3498-.7813.7813 0 .4314.3498.7812.7813.7812h1.3573l.7882 2.8279c.2516.9331.9508 1.6677 1.8704 1.965.1293.0418.26.074.3914.0968l-.7612 1.0987c-.2457.3547-.1573.8415.1973 1.0872.1357.0939.2907.1391.4442.1391.2476 0 .4911-.1174.6429-.3364l1.6686-2.4087h4.1286c3.4416 0 6.2834 2.617 6.6401 5.9656h-12.5733c-.7532 0-1.4862-.2655-2.0648-.7477l-11.107-9.5291c1.3182-1.0528 2.104-2.686 2.104-4.4723 0-1.3702-.4944-2.6937-1.3923-3.727-.5792-.6664-1.3008-1.1842-2.1024-1.5194.0259-.0204.0518-.0402.0778-.0595.0157-.0116.031-.0239.0457-.0367zm-1.2464 1.3603c1.7704.4761 3.0551 2.113 3.0551 3.9823 0 1.4104-.6632 2.6849-1.7576 3.4289l-3.0288-2.5985c-.0694-.0595-.1414-.1142-.2155-.1642.4272-1.7685 1.1297-3.4448 1.9468-4.6485zm29.227 22.4418c0 .4208-.3424.7632-.7633.7632h-12.7783c-1.8104 0-3.5704-.6418-4.95-1.8022l-15.3826-13.1975c-.1551-.1331-.2489-.3185-.2642-.5222-.0153-.2038.0499-.4012.1833-.5558l.9046-1.0482c.1506-.1745.3639-.2641.5785-.2641.176 0 .3528.0603.4964.1835l15.3558 13.1746c.0025.0022.0051.0044.0077.0065.8597.7186 1.9501 1.1143 3.0705 1.1143h12.7783c.4209 0 .7633.3425.7633.7633z"/></g></svg>