<svg fill="none" height="76" viewBox="0 0 76 76" width="76" xmlns="http://www.w3.org/2000/svg"><circle cx="38" cy="38" fill="#e4e4e4" r="38"/><path d="m52.2712 31.4237v-7.548c0-4.339-3.0283-5.8757-5.8757-5.8757h-16.904c-2.8474 0-5.8757 1.5367-5.8757 5.8757v7.548c-2.0791.5424-3.6158 2.3955-3.6158 4.6554v12.113c0 3.5706 2.3955 4.9717 4.7458 5.1073v3.0735c0 .9039.7231 1.6271 1.6271 1.6271h1.6723c.904 0 1.6271-.7232 1.6271-1.6271v-3.0735h16.5876v3.0735c0 .9039.7231 1.6271 1.6271 1.6271h1.6723c.904 0 1.6271-.7232 1.6271-1.6271v-3.0735c3.4803-.1808 4.7458-2.7118 4.7458-5.1073v-12.1582c-.0904-2.2147-1.6271-4.113-3.661-4.6102zm-27.0283-7.548c0-3.7062 2.6667-4.2938 4.2486-4.2938h16.904c1.5819 0 4.2486.5424 4.2486 4.2486v7.4124c-2.4407.226-4.3842 2.2599-4.3842 4.791v1.1299h-16.6328v-1.1299c0-2.5311-1.9435-4.565-4.3842-4.791zm20.9718 14.9153v5.6045h-16.5876v-5.6045zm-18.1695 17.5819h-1.6723v-3.0735h1.6723zm21.4689 0h-1.6723v-3.0735h1.6723zm4.791-8.1808h-.0452c0 1.5819-.5876 3.5254-3.5254 3.5254h-1.2204-1.6723-19.7966-1.6723-1.2204c-1.5819 0-3.5254-.5876-3.5254-3.5254v-12.1582c0-1.7627 1.4463-3.209 3.2091-3.209 1.7627 0 3.209 1.4463 3.209 3.209v9.1751c0 .452.3616.8136.8136.8136h18.2146c.452 0 .8136-.3616.8136-.8136v-9.1751c0-1.7627 1.4463-3.209 3.209-3.209 1.7628 0 3.2091 1.4463 3.2091 3.209z" fill="#000"/></svg>