<svg fill="none" height="76" viewBox="0 0 76 76" width="76" xmlns="http://www.w3.org/2000/svg"><circle cx="38" cy="38" fill="#e4e4e4" r="38"/><g fill="#000"><path d="m48.8334 24.3334c-3.2162 0-5.8334 2.6172-5.8334 5.8333 0 .4607.3727.8334.8334.8334.4606 0 .8333-.3727.8333-.8334-.0001-2.2974 1.8692-4.1667 4.1667-4.1667.4606 0 .8333-.3727.8333-.8333-.0001-.4606-.3727-.8333-.8333-.8333z"/><path d="m28.4882 31.4883c-.6503.6494-.6503 1.7073 0 2.3568.3247.3246.7519.4875 1.1783.4875s.8537-.1628 1.1784-.4875c.6502-.6495.6502-1.7074 0-2.3568-.6494-.6494-1.7073-.6494-2.3567 0z"/><path d="m45.155 50.5117c.3247.3247.752.4875 1.1784.4875s.8537-.1627 1.1784-.4875c.6502-.6494.6502-1.7073 0-2.3568-.6495-.6494-1.7074-.6494-2.3568 0-.6502.6495-.6502 1.7075 0 2.3568z"/><path d="m55.3167 23.6837c-2.3092-2.3091-5.6196-3.2044-8.8519-2.3872-3.9144.9857-6.6477 4.584-6.8015 8.9548-.0159.4544-.1602.933-.389 1.4167-4.5976-3.6233-9.0977-5.6918-12.1338-5.667-1.26.035-2.2677.4208-2.9954 1.1484-.7276.7277-1.1135 1.7354-1.1485 2.9961-.067 2.5174 1.2969 5.8968 3.683 9.4725-2.0864.4119-4.0121 1.3898-5.512 2.8903-4.2244 4.2243-4.2244 11.0986 0 15.3229 2.1123 2.1121 4.8871 3.1686 7.6619 3.1686 2.7747 0 5.5496-1.0565 7.6618-3.1686 1.5012-1.5018 2.4795-3.4282 2.8908-5.5151 3.4903 2.3288 6.7941 3.6879 9.2901 3.6879.0619 0 .1229-.0008.184-.0025 1.26-.0333 2.2677-.4199 2.9945-1.1467.7277-.7277 1.1143-1.7354 1.1477-2.9945.0818-3.0461-2.0352-7.5366-5.6657-12.1353.4833-.2285.9618-.3727 1.416-.3885 4.3702-.1539 7.9695-2.8871 8.9552-6.802.8141-3.233-.078-6.5416-2.3872-8.8508zm-20.0021 32.9647c-3.5743 3.5742-9.3897 3.5742-12.9639 0-3.5743-3.5742-3.5743-9.3897 0-12.9639 1.441-1.441 3.3421-2.3477 5.3919-2.5821.3866.525.785 1.0486 1.212 1.5761-4.1568-.1184-7.6227 3.3148-7.622 7.4879 0 4.1358 3.3643 7.5 7.5 7.5s7.5-3.3643 7.5-7.5c0-.0393-.0105-.0802-.0112-.1195.5273.4267 1.0506.8232 1.5753 1.2096-.2344 2.05-1.1412 3.9502-2.5821 5.3919zm-.9514-8.2641c.2035.6144.3028 1.1995.3028 1.7823 0 3.2161-2.6172 5.8333-5.8334 5.8333-3.2161-.0001-5.8333-2.6173-5.8333-5.8334 0-3.2162 2.6172-5.8334 5.8334-5.8334.5826 0 1.1678.0993 1.7823.3027.5802.6454 1.1849 1.2891 1.8221 1.9263v.0008c.6371.6357 1.2808 1.2412 1.9261 1.8214zm16.967 3.4277c-.0212.8187-.2434 1.4437-.66 1.8596-.4151.4158-1.0401.638-1.8595.6592-2.3844.0805-5.8707-1.4925-9.5309-4.1232-.0104-.0082-.0141-.0219-.0248-.0296-.9306-.6669-1.8388-1.3845-2.7277-2.1327-.0982-.0834-.1963-.1624-.2942-.2471-.8981-.7691-1.7751-1.572-2.6178-2.4144-.8439-.8443-1.6492-1.7237-2.4205-2.6248-.0786-.0912-.1522-.1822-.2297-.2735-.752-.8928-1.4729-1.8059-2.144-2.7414-.0073-.0102-.0205-.0135-.0283-.0233-2.623-3.6518-4.1897-7.13-4.1253-9.5307.022-.8195.2442-1.4461.66-1.8619.4159-.4159 1.0425-.6381 1.8612-.66 2.672-.0996 6.9047 1.9975 11.1941 5.4135-.6857.8823-1.5566 1.7195-2.3986 2.3876-.9017.7169-1.1881 1.9955-.6811 3.0404.4191.8626 1.1247 2.0972 2.1069 3.0794.9823.9823 2.2168 1.6878 3.0795 2.107.3467.1684.7194.249 1.088.249.7439 0 1.473-.3271 1.9524-.9301.668-.8418 1.5051-1.7127 2.3872-2.3982 3.4146 4.291 5.4854 8.5365 5.4131 11.1952zm4.7551-19.6851c-.8025 3.1877-3.7753 5.4151-7.3959 5.5429-2.9053.1017-5.6828 3.3235-6.4648 4.3082-.2344.2963-.6584.389-1.0075.2189-.7471-.3629-1.81-.9675-2.6286-1.7863-.8187-.8187-1.4234-1.8815-1.7864-2.6286-.1693-.3491-.0773-.7722.2189-1.0075.9847-.782 4.2066-3.5596 4.3083-6.4648.1278-3.6214 2.3552-6.5935 5.5421-7.3959.6502-.1636 1.3037-.2441 1.9474-.2441 1.9897 0 3.8891.7658 5.3174 2.1932 1.8897 1.8905 2.6188 4.6061 1.9491 7.264z"/></g></svg>