<svg fill="none" height="76" viewBox="0 0 76 76" width="76" xmlns="http://www.w3.org/2000/svg"><circle cx="38" cy="38" fill="#e4e4e4" r="38"/><g fill="#000"><path d="m42.6875 45.0312c-.4312 0-.7813.3501-.7813.7813s.3501.7813.7813.7813.7813-.3501.7813-.7813-.3501-.7813-.7813-.7813z"/><path d="m54.0938 18h-32.1876c-2.1539 0-3.9062 1.7523-3.9062 3.9062v23.9063c0 2.1539 1.7523 3.9063 3.9062 3.9063h12.1876v3.5937h-.7813c-1.0431 0-2.0236.4065-2.7618 1.1444-.738.7382-1.1445 1.7188-1.1445 2.7619 0 .4315.3498.7812.7813.7812h15.625c.4315 0 .7813-.3497.7813-.7812 0-2.154-1.7524-3.9063-3.9063-3.9063h-.7813v-3.5937h12.1876c2.1539 0 3.9062-1.7524 3.9062-3.9063v-23.9063c0-2.1539-1.7523-3.9062-3.9062-3.9062zm-32.1876 1.5625h32.1876c1.2924 0 2.3437 1.0513 2.3437 2.3437v20h-3.5937v-17.9687c0-.4315-.3498-.7813-.7813-.7813h-6.25c-.4315 0-.7813.3498-.7813.7813v17.9687h-3.9105c-.0082-.8081-.0293-1.6046-.0628-2.3773-.1368-3.1817-.4483-5.3131-.6104-6.2506 1.6119-1.1868 2.052-3.3865 1.0666-5.0955l-2.7078-4.6899c-.1398-.2417-.3977-.3907-.6766-.3907-.2792 0-.5371.149-.6766.3907l-2.709 4.6902c-.929 1.6113-.5997 3.6984.8597 4.9301-.1691.9348-.5103 3.1424-.6586 6.4142-.0351.7809-.0574 1.5781-.0659 2.3788h-3.9105v-11.7187c0-.1239-.0293-.2368-.0773-.3372-.0021-.004-.0033-.0083-.0051-.0122l-3.125-6.25c-.1325-.2646-.4029-.4319-.6989-.4319s-.5664.1673-.6989.4319l-3.125 6.25c-.0018.0039-.003.0082-.0048.0122-.0489.1013-.0776.216-.0776.3372v11.7187h-3.5937v-20c0-1.2924 1.0513-2.3437 2.3437-2.3437zm24.6876 22.3437v-17.1874h4.6874v1.5624h-.7812c-.4315 0-.7812.3498-.7812.7813s.3497.7813.7812.7813h.7812v2.3437h-.7812c-.4315 0-.7812.3497-.7812.7813 0 .4315.3497.7812.7812.7812h.7812v2.3438h-.7812c-.4315 0-.7812.3497-.7812.7812s.3497.7812.7812.7812h.7812v3.125h-.7812c-.4315 0-.7812.3498-.7812.7813s.3497.7813.7812.7813h.7812v1.5624zm-8.4641-7.8665c.2838 0 .5664-.0326.8429-.0937.145.9293.358 2.5736.484 4.8352h-2.908c.1321-2.2601.3552-3.93.5093-4.8907.3461.0986.7065.1492 1.0718.1492zm0-1.5625c-1.7856 0-2.937-1.9433-2.0322-3.5131l2.0322-3.5181 2.0309 3.5177c.9015 1.5635-.234 3.5135-2.0309 3.5135zm-1.6528 7.8666h3.0484c.0164.5133.0277 1.0354.0332 1.5624h-3.1167c.0058-.5236.0177-1.0458.0351-1.5624zm-8.6331 1.5624v-10.9374h1.5624v10.9374zm-3.125 0v-10.9374h1.5624v10.9374zm.4827-12.5 1.861-3.7219 1.861 3.7219zm19.6958 27.0313h-13.7955c.1148-.3256.3021-.6241.5536-.8759.4431-.4428 1.0315-.6866 1.6571-.6866h9.375c1.0187 0 1.8875.6531 2.2098 1.5625zm-4.5535-3.125h-4.6876v-3.5937h4.6876zm13.75-5.1563h-32.1876c-1.2924 0-2.3437-1.0513-2.3437-2.3437v-2.3437h36.875v2.3437c0 1.2924-1.0513 2.3437-2.3437 2.3437z"/><path d="m39.5625 45.0312h-4.6875c-.4315 0-.7812.3498-.7812.7813s.3497.7813.7812.7813h4.6875c.4315 0 .7813-.3498.7813-.7813s-.3498-.7813-.7813-.7813z"/></g></svg>