<svg fill="none" height="51" viewBox="0 0 41 51" width="41" xmlns="http://www.w3.org/2000/svg"><path d="m38.1075 12.5315c-.0446-.5282-.4895-.9329-1.0197-.9277h-7.7494v-2.9367c0-4.78682-3.8806-8.6671-8.6671-8.6671-4.7868 0-8.6671 3.88028-8.6671 8.6671v2.9367h-7.74937c-.52775.002-.96828.4027-1.01966.9277l-2.671425 30.7124c-.121482 1.4239.359669 2.8339 1.327155 3.8867.96708 1.0523 2.33127 1.6509 3.76078 1.6497h30.04932c1.4295.0012 2.7937-.5974 3.7607-1.6497.9675-1.0528 1.4491-2.4628 1.3276-3.8867zm-24.0639-3.8644c0-3.66041 2.9673-6.62778 6.6277-6.62778 3.6605 0 6.6278 2.96737 6.6278 6.62778v2.9367h-13.2555zm23.911 37.0849c-.5768.6349-1.3961.9946-2.2536.989h-30.05967c-.85755.0004-1.67567-.3593-2.2556-.991-.57953-.6321-.86751-1.4785-.79302-2.3328l2.58977-29.7741h6.82172v6.3625c-1.6398.5047-2.66382 2.1326-2.40851 3.8293.25492 1.6964 1.71271 2.9511 3.42821 2.9511s3.1729-1.2547 3.4282-2.9511c.2549-1.6967-.7691-3.3246-2.4085-3.8293v-6.3728h13.2555v6.3728c-1.6398.5047-2.6638 2.1326-2.4085 3.8293.2549 1.6964 1.7127 2.9511 3.4282 2.9511s3.1729-1.2547 3.4282-2.9511c.2549-1.6967-.7691-3.3246-2.4086-3.8293v-6.3728h6.8114l2.5898 29.774c.0837.858-.2019 1.7107-.785 2.3452zm-25.0837-23.8496c.1016.0135.2044.0135.3059 0 .754.0812 1.3133.7384 1.2726 1.4956-.041.7576-.6671 1.351-1.4255 1.351-.7588 0-1.3849-.5934-1.4255-1.351-.0407-.7572.5182-1.4144 1.2725-1.4956zm15.2949 0c.1016.0135.2044.0135.3059 0 .754.0812 1.3132.7384 1.2726 1.4956-.041.7576-.6672 1.351-1.4255 1.351-.7588 0-1.3849-.5934-1.4256-1.351-.0406-.7572.5182-1.4144 1.2726-1.4956z" fill="#000"/><path d="m25.1085 38.3477c0 .624-.15 1.206-.45 1.746-.3.528-.756.954-1.368 1.278s-1.362.486-2.25.486c-.864 0-1.638-.15-2.322-.45-.684-.312-1.23-.744-1.638-1.296s-.642-1.188-.702-1.908h2.196c.06.552.294 1.026.702 1.422.42.396.978.594 1.674.594.624 0 1.104-.168 1.44-.504.348-.336.522-.768.522-1.296 0-.456-.126-.828-.378-1.116-.252-.3-.564-.534-.936-.702s-.882-.36-1.53-.576c-.792-.252-1.44-.504-1.944-.756-.492-.252-.912-.618-1.26-1.098s-.522-1.11-.522-1.89c0-.684.168-1.284.504-1.8s.816-.912 1.44-1.188c.624-.288 1.344-.432 2.16-.432 1.296 0 2.322.312 3.078.936.768.624 1.206 1.44 1.314 2.448h-2.214c-.084-.48-.312-.888-.684-1.224-.36-.348-.858-.522-1.494-.522-.576 0-1.038.15-1.386.45-.348.288-.522.708-.522 1.26 0 .432.12.792.36 1.08.24.276.54.498.9.666.372.156.876.342 1.512.558.804.252 1.458.51 1.962.774.516.252.948.624 1.296 1.116.36.492.54 1.14.54 1.944z" fill="#29a867"/></svg>